PathFileType	4	(X/Y/Z)
DataRate	CameraRate	NumFrames	NumMarkers	Units	OrigDataRate	OrigDataStartFrame	OrigNumFrames	
	120.0	120.0	10	39	mm	120.0	54	142
Frame#	Time	midhip	hip_r	hip_l	knee_r	knee_l	ankle_r	ankle_l	midasis	asis_r	asis_l	psis_r	psis_l	epicondLat_r	epicondLat_l	epicondMed_r	epicondMed_l	malleolusLat_r	malleolusLat_l	malleolusMedv_r	malleolusMedv_l	heel_r	heel_l	sternalnotch	xyphoidprocess	neck	subclavicle_r	subclavicle_l	toe_r	toe_l	thighwand_r	thighwand_l	upperleg1_r	upperleg1_l	upperleg2_r	upperleg2_l	shankwand_r	shankwand_l	lowerleg1_r	lowerleg1_l
	X1	Y1	Z1	X2	Y2	Z2	X3	Y3	Z3	X4	Y4	Z4	X5	Y5	Z5	X6	Y6	Z6	X7	Y7	Z7	X8	Y8	Z8	X9	Y9	Z9	X10	Y10	Z10	X11	Y11	Z11	X12	Y12	Z12	X13	Y13	Z13	X14	Y14	Z14	X15	Y15	Z15	X16	Y16	Z16	X17	Y17	Z17	X18	Y18	Z18	X19	Y19	Z19	X20	Y20	Z20	X21	Y21	Z21	X22	Y22	Z22	X23	Y23	Z23	X24	Y24	Z24	X25	Y25	Z25	X26	Y26	Z26	X27	Y27	Z27	X28	Y28	Z28	X29	Y29	Z29	X30	Y30	Z30	X31	Y31	Z31	X32	Y32	Z32	X33	Y33	Z33	X34	Y34	Z34	X35	Y35	Z35	X36	Y36	Z36	X37	Y37	Z37	X38	Y38	Z38	X39	Y39	Z39

	54	0.45000	537.872	743.285	-263.455	529.490	745.019	-198.862	546.255	741.551	-328.048	478.943	406.411	-155.422	483.974	424.104	-352.848	511.832	66.927	-119.022	494.514	70.343	-390.822	610.164	809.684	-255.856	596.673	812.474	-151.899	623.655	806.893	-359.813	451.957	855.671	-244.036	455.154	853.835	-298.924	474.456	414.045	-101.140	482.539	428.627	-407.141	479.819	408.589	-207.680	488.458	400.088	-305.233	499.465	69.515	-83.715	484.234	73.833	-426.193	515.302	66.000	-141.723	497.768	66.536	-372.364	477.605	37.395	-143.795	437.229	41.290	-380.932	550.031	1172.578	-273.726	586.773	1093.731	-274.869	457.594	1218.973	-288.286	562.437	1172.586	-234.138	565.612	1177.420	-309.020	607.058	36.718	-84.807	595.877	38.970	-420.535	589.241	529.066	-56.047	658.044	527.085	-356.447	524.498	588.714	-97.389	597.289	597.468	-382.147	511.747	501.987	-105.926	572.425	513.537	-385.133	465.730	185.280	-21.137	490.083	205.526	-487.767	480.452	144.423	-91.747	478.353	158.415	-419.153
	55	0.45833	537.832	743.293	-263.428	529.452	745.034	-198.835	546.213	741.551	-328.021	478.921	406.407	-155.418	483.953	424.079	-352.850	511.850	66.920	-119.019	494.518	70.323	-390.818	610.122	809.695	-255.840	596.635	812.498	-151.891	623.608	806.893	-359.788	451.899	855.670	-244.037	455.098	853.850	-298.933	474.420	414.038	-101.136	482.523	428.606	-407.143	484.360	407.574	-207.922	488.596	400.032	-305.071	499.475	69.505	-83.715	484.242	73.813	-426.191	515.312	65.979	-141.714	497.758	66.530	-372.359	477.603	37.374	-143.788	437.229	41.281	-380.939	550.313	1172.598	-273.775	587.160	1093.796	-274.548	457.521	1218.976	-288.291	562.318	1172.621	-234.083	566.244	1177.459	-308.889	607.070	36.709	-84.820	595.888	38.959	-420.525	589.182	529.073	-56.023	657.996	527.124	-356.490	524.448	588.707	-97.366	597.329	597.453	-382.047	513.513	501.566	-105.971	572.460	513.503	-385.034	465.719	185.280	-21.136	490.088	205.508	-487.768	480.288	144.574	-91.487	478.371	158.369	-419.134
	56	0.46667	537.794	743.306	-263.398	529.415	745.059	-198.805	546.173	741.553	-327.991	478.897	406.411	-155.412	483.930	424.057	-352.852	511.865	66.916	-119.019	494.523	70.309	-390.817	610.082	809.713	-255.823	596.599	812.534	-151.884	623.564	806.892	-359.762	451.845	855.677	-244.034	455.044	853.869	-298.942	474.387	414.040	-101.130	482.505	428.588	-407.145	485.966	407.241	-207.985	488.616	400.023	-305.058	499.484	69.498	-83.716	484.251	73.798	-426.190	515.296	65.982	-141.712	497.748	66.533	-372.355	477.605	37.354	-143.781	437.229	41.274	-380.946	550.113	1172.634	-273.712	586.929	1093.819	-274.535	457.450	1218.999	-288.300	562.241	1172.686	-234.070	565.936	1177.460	-308.866	607.075	36.710	-84.832	595.892	38.957	-420.521	589.130	529.083	-56.002	657.985	527.115	-356.445	524.400	588.722	-97.366	597.310	597.472	-382.036	514.113	501.446	-105.979	572.466	513.499	-385.015	465.709	185.286	-21.134	490.090	205.492	-487.770	480.411	144.481	-91.729	478.354	158.357	-419.136
	57	0.47500	537.758	743.321	-263.370	529.382	745.087	-198.777	546.135	741.555	-327.963	478.873	406.422	-155.406	483.908	424.039	-352.857	511.879	66.915	-119.023	494.534	70.298	-390.819	610.046	809.729	-255.812	596.569	812.570	-151.883	623.523	806.888	-359.741	451.795	855.690	-244.030	454.993	853.890	-298.949	474.358	414.047	-101.124	482.487	428.574	-407.150	486.036	407.252	-207.987	488.519	400.088	-305.180	499.495	69.495	-83.721	484.265	73.786	-426.194	515.240	66.008	-141.725	497.755	66.543	-372.360	477.613	37.333	-143.775	437.228	41.273	-380.955	549.755	1172.663	-273.624	586.491	1093.812	-274.624	457.365	1219.016	-288.310	562.197	1172.761	-234.081	565.303	1177.423	-308.908	607.079	36.717	-84.842	595.890	38.959	-420.526	589.089	529.093	-55.987	657.997	527.069	-356.347	524.317	588.765	-97.363	597.256	597.553	-382.089	514.096	501.479	-105.978	572.437	513.549	-385.068	465.701	185.297	-21.131	490.092	205.479	-487.772	480.660	144.279	-92.200	478.300	158.384	-419.149
	58	0.48333	537.724	743.331	-263.351	529.353	745.108	-198.757	546.095	741.554	-327.944	478.852	406.431	-155.402	483.888	424.025	-352.865	511.899	66.913	-119.032	494.552	70.285	-390.826	610.015	809.737	-255.810	596.549	812.596	-151.891	623.482	806.878	-359.729	451.746	855.707	-244.022	454.946	853.909	-298.950	474.334	414.053	-101.120	482.471	428.564	-407.157	486.067	407.276	-207.994	488.512	400.121	-305.194	499.513	69.489	-83.730	484.285	73.771	-426.202	515.235	66.020	-141.734	497.779	66.537	-372.370	477.633	37.308	-143.769	437.226	41.276	-380.963	549.752	1172.760	-273.657	586.580	1093.953	-274.701	457.292	1219.033	-288.320	562.130	1172.820	-234.089	565.351	1177.585	-308.914	607.091	36.713	-84.854	595.885	38.957	-420.539	589.064	529.095	-55.983	657.999	527.024	-356.285	524.266	588.800	-97.350	597.228	597.620	-382.110	514.084	501.499	-105.976	572.432	513.563	-385.073	465.696	185.308	-21.126	490.097	205.465	-487.776	480.654	144.325	-92.194	478.274	158.393	-419.161
	59	0.49167	537.691	743.334	-263.339	529.329	745.119	-198.744	546.054	741.548	-327.933	478.834	406.434	-155.399	483.872	424.012	-352.871	511.927	66.906	-119.040	494.578	70.264	-390.834	609.991	809.733	-255.814	596.539	812.605	-151.905	623.443	806.861	-359.723	451.699	855.725	-244.010	454.905	853.925	-298.946	474.314	414.055	-101.117	482.455	428.553	-407.163	486.110	407.248	-207.969	488.842	399.828	-305.317	499.541	69.479	-83.739	484.312	73.749	-426.210	515.288	66.004	-141.733	497.813	66.516	-372.376	477.664	37.277	-143.763	437.223	41.284	-380.967	550.458	1172.794	-273.901	587.493	1094.078	-274.331	457.242	1219.056	-288.318	562.071	1172.835	-234.112	566.722	1177.701	-308.834	607.103	36.704	-84.860	595.883	38.947	-420.555	589.056	529.085	-55.988	657.994	526.976	-356.248	524.279	588.790	-97.351	597.082	597.792	-381.959	514.109	501.493	-105.963	572.439	513.508	-385.050	465.697	185.315	-21.120	490.102	205.447	-487.779	480.416	144.558	-91.731	478.306	158.353	-419.161
	60	0.50000	537.661	743.327	-263.330	529.309	745.116	-198.735	546.014	741.537	-327.926	478.819	406.430	-155.393	483.862	423.998	-352.870	511.961	66.897	-119.042	494.613	70.235	-390.839	609.973	809.714	-255.819	596.538	812.593	-151.922	623.408	806.835	-359.716	451.654	855.743	-243.993	454.870	853.936	-298.934	474.296	414.051	-101.112	482.442	428.541	-407.162	486.076	407.207	-207.946	489.709	399.016	-305.868	499.573	69.467	-83.740	484.344	73.720	-426.215	515.347	65.973	-141.725	497.854	66.489	-372.391	477.701	37.243	-143.756	437.217	41.294	-380.970	549.929	1172.694	-273.778	586.746	1093.878	-274.553	457.188	1219.067	-288.309	562.089	1172.786	-234.180	565.724	1177.484	-308.914	607.104	36.698	-84.853	595.887	38.927	-420.566	589.061	529.064	-55.996	658.009	526.899	-356.171	524.306	588.750	-97.360	596.612	598.325	-381.574	514.110	501.465	-105.956	572.426	513.428	-385.083	465.705	185.319	-21.111	490.111	205.426	-487.780	480.327	144.617	-91.529	478.367	158.302	-419.162
	61	0.50833	537.635	743.313	-263.325	529.291	745.104	-198.728	545.979	741.522	-327.921	478.803	406.420	-155.382	483.858	423.986	-352.864	511.991	66.889	-119.037	494.648	70.206	-390.843	609.960	809.686	-255.823	596.542	812.566	-151.939	623.379	806.806	-359.707	451.611	855.760	-243.973	454.844	853.942	-298.916	474.279	414.042	-101.101	482.428	428.530	-407.156	486.053	407.183	-207.970	488.588	399.805	-305.508	499.603	69.457	-83.735	484.373	73.690	-426.217	515.418	65.932	-141.711	497.893	66.455	-372.411	477.737	37.208	-143.748	437.211	41.304	-380.970	549.774	1172.611	-273.783	586.499	1093.754	-274.710	457.131	1219.068	-288.300	562.135	1172.707	-234.271	565.395	1177.367	-308.976	607.097	36.696	-84.834	595.895	38.905	-420.569	589.073	529.039	-56.002	658.022	526.824	-356.102	524.318	588.701	-97.353	597.139	597.693	-382.019	514.110	501.418	-105.965	572.426	513.348	-385.119	465.715	185.319	-21.098	490.119	205.406	-487.778	480.360	144.558	-91.557	478.424	158.267	-419.157
	62	0.51667	537.608	743.301	-263.323	529.271	745.089	-198.725	545.944	741.513	-327.920	478.785	406.411	-155.364	483.849	423.982	-352.856	512.012	66.888	-119.026	494.669	70.190	-390.847	609.946	809.661	-255.824	596.540	812.535	-151.945	623.352	806.786	-359.702	451.573	855.778	-243.947	454.827	853.943	-298.892	474.259	414.035	-101.083	482.409	428.527	-407.147	485.954	407.188	-207.977	488.296	400.025	-305.322	499.623	69.454	-83.724	484.387	73.673	-426.219	515.474	65.917	-141.696	497.909	66.434	-372.415	477.761	37.187	-143.740	437.209	41.311	-380.968	549.820	1172.579	-273.820	586.553	1093.725	-274.718	457.087	1219.061	-288.283	562.125	1172.666	-234.299	565.491	1177.346	-308.982	607.084	36.702	-84.810	595.898	38.897	-420.572	589.082	529.022	-56.002	658.003	526.787	-356.088	524.308	588.671	-97.329	597.329	597.471	-382.137	514.072	501.388	-105.959	572.454	513.279	-385.093	465.722	185.321	-21.082	490.118	205.398	-487.777	480.361	144.539	-91.541	478.451	158.248	-419.142
	63	0.52500	537.577	743.297	-263.321	529.246	745.079	-198.723	545.909	741.516	-327.920	478.763	406.407	-155.338	483.828	423.991	-352.849	512.017	66.896	-119.008	494.665	70.199	-390.850	609.923	809.648	-255.820	596.525	812.513	-151.938	623.322	806.784	-359.702	451.542	855.795	-243.918	454.817	853.940	-298.865	474.236	414.035	-101.058	482.379	428.537	-407.140	485.738	407.200	-207.911	488.370	399.978	-305.297	499.629	69.460	-83.706	484.376	73.683	-426.219	515.482	65.942	-141.685	497.907	66.435	-372.413	477.761	37.188	-143.733	437.210	41.314	-380.962	549.857	1172.602	-273.811	586.640	1093.771	-274.682	457.052	1219.056	-288.278	562.065	1172.664	-234.245	565.610	1177.407	-308.946	607.064	36.719	-84.782	595.887	38.916	-420.578	589.077	529.021	-55.991	657.963	526.780	-356.083	524.283	588.662	-97.311	597.324	597.510	-382.105	513.984	501.402	-105.922	572.465	513.240	-385.067	465.722	185.327	-21.063	490.101	205.406	-487.777	480.345	144.545	-91.512	478.440	158.247	-419.134
